<svg width="648" height="182" viewBox="0 0 648 182" fill="none" xmlns="http://www.w3.org/2000/svg">
<path d="M431.519 78.9277C435.899 73.6719 441.403 71.0439 448.03 71.0439C461.436 71.0439 468.234 78.8325 468.425 94.4097V134H451.914V94.8667C451.914 91.3247 451.153 88.7158 449.629 87.04C448.106 85.3262 445.573 84.4692 442.031 84.4692C437.194 84.4692 433.69 86.3354 431.519 90.0679V134H415.009V46.25H431.519V78.9277ZM498.303 134H481.736V72.1865H498.303V134ZM480.764 56.1904C480.764 53.7148 481.583 51.6772 483.221 50.0776C484.897 48.478 487.163 47.6782 490.019 47.6782C492.838 47.6782 495.085 48.478 496.761 50.0776C498.436 51.6772 499.274 53.7148 499.274 56.1904C499.274 58.7041 498.417 60.7607 496.703 62.3603C495.028 63.96 492.8 64.7598 490.019 64.7598C487.239 64.7598 484.992 63.96 483.278 62.3603C481.602 60.7607 480.764 58.7041 480.764 56.1904ZM527.153 72.1865L527.667 79.3276C532.085 73.8052 538.008 71.0439 545.434 71.0439C551.985 71.0439 556.86 72.9673 560.059 76.814C563.259 80.6606 564.896 86.4116 564.972 94.0669V134H548.462V94.4668C548.462 90.9629 547.701 88.4302 546.177 86.8686C544.654 85.269 542.121 84.4692 538.579 84.4692C533.932 84.4692 530.448 86.4497 528.124 90.4106V134H511.614V72.1865H527.153ZM597.307 56.9902V72.1865H607.876V84.2978H597.307V115.147C597.307 117.433 597.745 119.07 598.621 120.061C599.497 121.051 601.173 121.546 603.649 121.546C605.477 121.546 607.096 121.413 608.505 121.146V133.657C605.267 134.647 601.935 135.143 598.507 135.143C586.929 135.143 581.026 129.296 580.797 117.604V84.2978H571.771V72.1865H580.797V56.9902H597.307Z" fill="black"/>
<path d="M51.8189 116.918C51.8189 114.9 50.8096 113.319 48.791 112.177C46.8105 110.996 43.6113 109.949 39.1934 109.035C24.4922 105.95 17.1416 99.7036 17.1416 90.2964C17.1416 84.812 19.4077 80.2417 23.9399 76.5854C28.5103 72.8911 34.4707 71.0439 41.8213 71.0439C49.667 71.0439 55.9321 72.8911 60.6167 76.5854C65.3394 80.2798 67.7007 85.0786 67.7007 90.9819H51.1904C51.1904 88.6206 50.4287 86.6782 48.9053 85.1548C47.3818 83.5933 45.0015 82.8125 41.7642 82.8125C38.9839 82.8125 36.832 83.4409 35.3086 84.6978C33.7852 85.9546 33.0234 87.5542 33.0234 89.4966C33.0234 91.3247 33.8804 92.8101 35.5942 93.9526C37.3462 95.0571 40.2788 96.0283 44.3921 96.8662C48.5054 97.666 51.9712 98.5801 54.7896 99.6084C63.5112 102.808 67.8721 108.349 67.8721 116.233C67.8721 121.87 65.4536 126.44 60.6167 129.944C55.7798 133.41 49.5337 135.143 41.8784 135.143C36.6987 135.143 32.0903 134.229 28.0532 132.4C24.0542 130.534 20.9121 128.001 18.627 124.802C16.3418 121.565 15.1992 118.08 15.1992 114.348H30.8525C31.0049 117.28 32.0903 119.527 34.1089 121.089C36.1274 122.65 38.8315 123.431 42.2212 123.431C45.3823 123.431 47.7627 122.841 49.3623 121.66C51 120.441 51.8189 118.861 51.8189 116.918ZM104.263 121.832C107.31 121.832 109.786 120.994 111.69 119.318C113.594 117.642 114.584 115.414 114.661 112.634H130.143C130.104 116.823 128.962 120.67 126.715 124.174C124.468 127.64 121.383 130.344 117.46 132.286C113.575 134.19 109.271 135.143 104.549 135.143C95.7129 135.143 88.7432 132.343 83.6397 126.745C78.5361 121.108 75.9844 113.338 75.9844 103.436V102.351C75.9844 92.8291 78.5171 85.231 83.5825 79.5561C88.648 73.8813 95.5986 71.0439 104.435 71.0439C112.166 71.0439 118.355 73.2529 123.001 77.6709C127.686 82.0508 130.066 87.897 130.143 95.2095H114.661C114.584 92.0103 113.594 89.4204 111.69 87.4399C109.786 85.4214 107.272 84.4121 104.149 84.4121C100.302 84.4121 97.3887 85.8213 95.4082 88.6396C93.4658 91.4199 92.4946 95.9521 92.4946 102.236V103.95C92.4946 110.311 93.4658 114.881 95.4082 117.661C97.3506 120.441 100.302 121.832 104.263 121.832ZM174.303 87.6685C172.056 87.3638 170.076 87.2114 168.362 87.2114C162.116 87.2114 158.021 89.3252 156.079 93.5527V134H139.569V72.1865H155.165L155.622 79.5561C158.936 73.8813 163.525 71.0439 169.39 71.0439C171.218 71.0439 172.932 71.2915 174.532 71.7866L174.303 87.6685ZM209.609 135.143C200.544 135.143 193.156 132.362 187.443 126.802C181.768 121.241 178.931 113.833 178.931 104.579V102.979C178.931 96.771 180.13 91.2295 182.53 86.3545C184.929 81.4414 188.319 77.6709 192.699 75.043C197.117 72.3769 202.144 71.0439 207.781 71.0439C216.236 71.0439 222.882 73.71 227.719 79.042C232.594 84.374 235.031 91.9341 235.031 101.722V108.463H195.669C196.203 112.5 197.802 115.738 200.468 118.175C203.172 120.613 206.581 121.832 210.694 121.832C217.055 121.832 222.025 119.527 225.605 114.919L233.717 124.002C231.242 127.506 227.89 130.249 223.663 132.229C219.435 134.171 214.751 135.143 209.609 135.143ZM207.724 84.4121C204.448 84.4121 201.782 85.5166 199.726 87.7256C197.707 89.9346 196.412 93.0957 195.841 97.209H218.807V95.895C218.73 92.2388 217.74 89.4204 215.836 87.4399C213.932 85.4214 211.228 84.4121 207.724 84.4121ZM272.908 135.143C263.843 135.143 256.455 132.362 250.742 126.802C245.067 121.241 242.23 113.833 242.23 104.579V102.979C242.23 96.771 243.429 91.2295 245.829 86.3545C248.228 81.4414 251.618 77.6709 255.998 75.043C260.416 72.3769 265.443 71.0439 271.08 71.0439C279.535 71.0439 286.181 73.71 291.018 79.042C295.893 84.374 298.33 91.9341 298.33 101.722V108.463H258.968C259.501 112.5 261.101 115.738 263.767 118.175C266.471 120.613 269.88 121.832 273.993 121.832C280.354 121.832 285.324 119.527 288.904 114.919L297.016 124.002C294.541 127.506 291.189 130.249 286.961 132.229C282.734 134.171 278.049 135.143 272.908 135.143ZM271.022 84.4121C267.747 84.4121 265.081 85.5166 263.024 87.7256C261.006 89.9346 259.711 93.0957 259.14 97.209H282.105V95.895C282.029 92.2388 281.039 89.4204 279.135 87.4399C277.23 85.4214 274.526 84.4121 271.022 84.4121ZM322.953 72.1865L323.467 79.3276C327.885 73.8052 333.807 71.0439 341.234 71.0439C347.785 71.0439 352.66 72.9673 355.859 76.814C359.058 80.6606 360.696 86.4116 360.772 94.0669V134H344.262V94.4668C344.262 90.9629 343.5 88.4302 341.977 86.8686C340.453 85.269 337.92 84.4692 334.378 84.4692C329.732 84.4692 326.247 86.4497 323.924 90.4106V134H307.414V72.1865H322.953Z" fill="black"/>
<rect x="389" y="21" width="247" height="139" rx="1" stroke="black" stroke-width="13"/>
</svg>
